<svg xmlns="http://www.w3.org/2000/svg" width="241" height="159" viewBox="0 0 241 159">
  <defs>
    <style>
      .cls-1 {
        fill: none;
        stroke: #fff;
        stroke-width: 2px;
        fill-rule: evenodd;
      }
    </style>
  </defs>
  <path class="cls-1" d="M19,49H238a10,10,0,0,1,10,10v41.652H9V59A10,10,0,0,1,19,49Zm0,1.937H238a10,10,0,0,1,10,10V102.7H9V60.937A10,10,0,0,1,19,50.937ZM9,100.652H248v33.789H9V100.652ZM9,132.5H248v31.744H9V132.5Zm0,29.807H248V196a10,10,0,0,1-10,10H19A10,10,0,0,1,9,196V162.311Z" transform="translate(-8 -48)"/>
</svg>
